# xmcd
#
# Track frame offsets: 
#        150
#        16013
#        36282
#        51650
#        64607
#        79978
#        98533
#        117259
#        134335
#        154103
#        169065
#        187642
#        205375
#        222292
#
# Disc length: 3215 seconds
#
# Revision: 0
# Processed by: cddbd v1.5.2PL0 Copyright (c) Steve Scherf et al.
# Submitted via: ExactAudioCopy v0.99pb4
#
DISCID=ba0c8d0e
DTITLE=Jeffrey Halford and the Healers - Railbirds
DYEAR=2005
DGENRE=Blues
TTITLE0=Denial
TTITLE1=South Of Bakersfield
TTITLE2=Watching The Trains
TTITLE3=Rent To Own
TTITLE4=Railbirds
TTITLE5=Halfway Gone
TTITLE6=Nine Hard Days
TTITLE7=Hannah Ruth
TTITLE8=Purgatory
TTITLE9=Jump Into The Fire
TTITLE10=Safe At Home
TTITLE11=Out On The Run
TTITLE12=Carmalina
TTITLE13=Vancouver Rain
EXTD=
EXTT0=
EXTT1=
EXTT2=
EXTT3=
EXTT4=
EXTT5=
EXTT6=
EXTT7=
EXTT8=
EXTT9=
EXTT10=
EXTT11=
EXTT12=
EXTT13=
PLAYORDER=
